<?xml version="1.0" encoding="UTF-8" standalone="no"?>
<svg
   width="24"
   height="24"
   viewBox="0 0 24 24"
   fill="none"
   stroke="currentColor"
   stroke-width="2"
   stroke-linecap="round"
   stroke-linejoin="round"
   class="lucide lucide-unplug"
   version="1.1"
   id="svg6"
   sodipodi:docname="battery-disconnected.svg"
   inkscape:version="1.4 (e7c3feb100, 2024-10-09)"
   xmlns:inkscape="http://www.inkscape.org/namespaces/inkscape"
   xmlns:sodipodi="http://sodipodi.sourceforge.net/DTD/sodipodi-0.dtd"
   xmlns="http://www.w3.org/2000/svg"
   xmlns:svg="http://www.w3.org/2000/svg">
  <defs
     id="defs6" />
  <sodipodi:namedview
     id="namedview6"
     pagecolor="#ffffff"
     bordercolor="#000000"
     borderopacity="0.25"
     inkscape:showpageshadow="2"
     inkscape:pageopacity="0.0"
     inkscape:pagecheckerboard="0"
     inkscape:deskcolor="#d1d1d1"
     inkscape:zoom="14.958333"
     inkscape:cx="12"
     inkscape:cy="11.966574"
     inkscape:window-width="1282"
     inkscape:window-height="1025"
     inkscape:window-x="0"
     inkscape:window-y="0"
     inkscape:window-maximized="0"
     inkscape:current-layer="svg6" />
  <path
     d="m19 5 3-3"
     id="path1"
     style="stroke-width:1.5;stroke-dasharray:none" />
  <path
     d="m2 22 3-3"
     id="path2"
     style="stroke-width:1.5;stroke-dasharray:none" />
  <path
     d="M6.3 20.3a2.4 2.4 0 0 0 3.4 0L12 18l-6-6-2.3 2.3a2.4 2.4 0 0 0 0 3.4Z"
     id="path3"
     style="stroke-width:1.5;stroke-dasharray:none" />
  <path
     d="M7.5 13.5 10 11"
     id="path4"
     style="stroke-width:1.5;stroke-dasharray:none" />
  <path
     d="M10.5 16.5 13 14"
     id="path5"
     style="stroke-width:1.5;stroke-dasharray:none" />
  <path
     d="m12 6 6 6 2.3-2.3a2.4 2.4 0 0 0 0-3.4l-2.6-2.6a2.4 2.4 0 0 0-3.4 0Z"
     id="path6"
     style="stroke-width:1.5;stroke-dasharray:none" />
</svg>
