<?xml version="1.0" encoding="UTF-8" standalone="no"?>
<svg
   width="16"
   height="16"
   version="1.1"
   id="svg1"
   sodipodi:docname="memory.svg"
   inkscape:version="1.3.2 (091e20ef0f, 2023-11-25, custom)"
   xmlns:inkscape="http://www.inkscape.org/namespaces/inkscape"
   xmlns:sodipodi="http://sodipodi.sourceforge.net/DTD/sodipodi-0.dtd"
   xmlns="http://www.w3.org/2000/svg"
   xmlns:svg="http://www.w3.org/2000/svg">
  <defs
     id="defs1" />
  <sodipodi:namedview
     id="namedview1"
     pagecolor="#ffffff"
     bordercolor="#999999"
     borderopacity="1"
     inkscape:showpageshadow="0"
     inkscape:pageopacity="0"
     inkscape:pagecheckerboard="0"
     inkscape:deskcolor="#d1d1d1"
     inkscape:zoom="16.3125"
     inkscape:cx="8"
     inkscape:cy="7.9693487"
     inkscape:window-width="1270"
     inkscape:window-height="1350"
     inkscape:window-x="0"
     inkscape:window-y="0"
     inkscape:window-maximized="1"
     inkscape:current-layer="svg1" />
  <path
     style="fill:#ffffff;fill-opacity:1"
     d="M 2e-4,13 C 2e-4,13.554 0.4462,14 1.0002,14 H 2.0002 3.0002 4.0002 5.0002 6.0002 V 12 H 4.0002 3.0002 2.0002 2e-4 Z M 2e-4,11 H 1.0002 9.0002 10 14 15 16 V 9 8 A 1,1 0 0 1 15,7 1,1 0 0 1 15.93,6.002 1.5,1.5 0 0 1 16,6 V 5 4.5 4 C 16,3.446 15.554,3 15,3 L 14.5,3 H 14 1.9999 1.4999 0.9999 C 0.4459,3 -1e-4,3.446 -1e-4,4 L -1e-4,4.5 -1e-4,5 -1e-4,6 A 1,1 0 0 1 0.0999,6.006 1,1 0 0 1 1.0002,7 1,1 0 0 1 2e-4,8 L 2e-4,9 2e-4,9.9999 2e-4,11 Z M 3.0002,9 3.0002,5 H 5.0002 L 5.0002,9 Z M 7.0002,9 7.0002,5 H 9.0002 V 9 Z M 8.0002,14 H 9.0002 10 11 12 13 14 15 C 15.554,14 16,13.554 16,13 V 12 H 14 13 12 11 9.0002 8.0002 Z M 11,9 V 5 H 13 V 9 Z"
     id="path1" />
</svg>
